<svg xmlns="http://www.w3.org/2000/svg" viewBox="0 0 64 64" width="64" height="64">
  <defs>
    <linearGradient id="bgGradient" x1="0%" y1="0%" x2="100%" y2="100%">
      <stop offset="0%" style="stop-color:#4299e1;stop-opacity:1" />
      <stop offset="100%" style="stop-color:#63b3ed;stop-opacity:1" />
    </linearGradient>
    <linearGradient id="mountainGradient" x1="0%" y1="100%" x2="100%" y2="0%">
      <stop offset="0%" style="stop-color:#2d5016;stop-opacity:1" />
      <stop offset="100%" style="stop-color:#4a5568;stop-opacity:1" />
    </linearGradient>
  </defs>
  
  <!-- 明るい背景（青空） -->
  <rect width="64" height="64" fill="url(#bgGradient)" rx="12"/>
  
  <!-- 白い雲（視認性向上） -->
  <ellipse cx="45" cy="15" rx="12" ry="6" fill="#ffffff" opacity="0.7"/>
  <ellipse cx="20" cy="12" rx="8" ry="4" fill="#ffffff" opacity="0.6"/>
  
  <!-- 岩手山のシルエット（よりコントラストの高い色） -->
  <path d="M0 45 Q15 28 25 33 Q35 22 45 28 Q55 18 64 23 V64 H0 Z" fill="url(#mountainGradient)"/>
  
  <!-- 雪化粧（より明確に） -->
  <path d="M20 33 Q30 25 40 30 Q50 22 60 26 Q55 30 45 35 Q35 32 25 38 Z" fill="#ffffff" opacity="0.95"/>
  
  <!-- 大きく見やすい「IT」文字 -->
  <g transform="translate(24, 18)">
    <!-- I -->
    <rect x="0" y="0" width="4" height="2" fill="#ffffff"/>
    <rect x="1" y="2" width="2" height="12" fill="#ffffff"/>
    <rect x="0" y="14" width="4" height="2" fill="#ffffff"/>
    
    <!-- T -->
    <rect x="8" y="0" width="8" height="2" fill="#ffffff"/>
    <rect x="11" y="2" width="2" height="14" fill="#ffffff"/>
  </g>
  
  <!-- 稲穂のアクセント（より目立つ黄色） -->
  <circle cx="12" cy="50" r="2.5" fill="#ffd700"/>
  <circle cx="16" cy="47" r="2" fill="#ffd700"/>
  <circle cx="48" cy="52" r="2.5" fill="#ffd700"/>
  <circle cx="52" cy="49" r="2" fill="#ffd700"/>
</svg>